<?xml version="1.0" standalone="no"?><!DOCTYPE svg PUBLIC "-//W3C//DTD SVG 1.1//EN" "http://www.w3.org/Graphics/SVG/1.1/DTD/svg11.dtd"><svg t="1622098627971" class="icon" viewBox="0 0 1024 1024" version="1.1" xmlns="http://www.w3.org/2000/svg" p-id="2723" xmlns:xlink="http://www.w3.org/1999/xlink" width="200" height="200"><defs><style type="text/css"></style></defs><path d="M512 512c83.968 0 152.064-68.096 152.064-152.064S595.968 207.872 512 207.872 359.936 275.968 359.936 359.936 428.032 512 512 512z m0-43.52c-59.904 0-109.056-48.64-109.056-109.056S451.584 250.88 512 250.88s109.056 48.64 109.056 109.056-49.152 108.544-109.056 108.544z" fill="#386FF0" p-id="2724"></path><path d="M468.48 381.44h87.04c0 24.064-19.456 43.52-43.52 43.52s-43.52-19.456-43.52-43.52z" fill="#BDD7FF" p-id="2725"></path><path d="M370.688 555.52h282.624c77.824 0 141.312 58.368 141.312 130.56s-63.488 130.56-141.312 130.56H370.688c-77.824 0-141.312-58.368-141.312-130.56 0.512-72.192 63.488-130.56 141.312-130.56zM368.64 599.04c-52.736 0-95.744 38.912-95.744 87.04s43.008 87.04 95.744 87.04h286.72c52.736 0 95.744-38.912 95.744-87.04s-43.008-87.04-95.744-87.04H368.64z" fill="#386FF0" p-id="2726"></path></svg>